<svg width="76" height="76" viewBox="0 0 76 76" fill="none" xmlns="http://www.w3.org/2000/svg">
<rect width="76" height="76" rx="5" fill="#1478F9"/>
<path d="M25.8978 19.5478H23.4603C22.5005 19.5478 21.9185 20.1267 21.9185 21.0713V55.9915C21.9185 56.9787 22.4944 57.5454 23.4907 57.5454C26.5985 57.5454 34.2919 57.5454 37.4028 57.5454V60.3881C34.2035 60.3881 26.5467 60.3881 23.3475 60.3729C21.2787 60.3485 19.7949 59.1298 19.1794 57.061C19.155 56.9817 19.1794 56.8751 19.0758 56.8385V20.2547C19.2982 18.7039 20.194 17.671 21.5621 16.9854C21.9277 16.8026 22.3268 16.827 22.7016 16.7203H25.8978V19.5478Z" fill="white"/>
<path d="M42.6373 19.5444H44.179C44.4594 19.5444 44.5447 19.6084 44.5416 19.9009C44.5264 21.595 44.5416 23.289 44.5416 24.9831C44.5416 26.8569 45.7299 28.03 47.6129 28.03C49.3069 28.03 51.001 28.03 52.6951 28.03C52.9662 28.03 53.0394 28.094 53.0333 28.3682C53.0333 29.5595 53.0333 49.9401 53.0333 49.9401L55.876 49.8913C55.876 49.8913 55.8486 28.6302 55.876 26.994C55.8904 26.687 55.8373 26.3806 55.7204 26.0963C55.6035 25.812 55.4258 25.5569 55.1996 25.3487C52.5833 22.7589 49.9783 20.1558 47.3844 17.5396C47.0794 17.2071 46.7185 16.9307 46.318 16.723H42.6617L42.6373 19.5444Z" fill="white"/>
<path d="M36.2424 19.5475H32.0743V16.72H36.2424V19.5475Z" fill="white"/>
<path d="M30.3616 11.0312C30.9313 11.2811 31.1294 11.7107 31.1294 12.3292C31.1142 17.1646 31.1294 18.0726 31.1111 22.9049C31.1111 23.2096 31.2025 23.2644 31.4767 23.2583C32.3177 23.2583 33.1586 23.2583 33.9996 23.2583C34.2175 23.2359 34.4369 23.2827 34.6267 23.3921C34.8165 23.5015 34.967 23.6679 35.0568 23.8677C35.1407 24.056 35.1658 24.2652 35.1288 24.468C35.0919 24.6708 34.9946 24.8576 34.8496 25.0042C33.2246 26.9562 31.5996 28.9093 29.9746 30.8633C29.4506 31.488 28.7863 31.488 28.2653 30.8633C26.62 28.8991 24.9778 26.9298 23.3385 24.9555C23.202 24.8081 23.1123 24.6234 23.0808 24.425C23.0493 24.2266 23.0775 24.0232 23.1617 23.8408C23.2459 23.6584 23.3823 23.5051 23.5538 23.4003C23.7252 23.2955 23.9239 23.244 24.1246 23.2523C24.9991 23.2523 25.8705 23.2523 26.7419 23.2523C27.0192 23.2523 27.1075 23.2005 27.1075 22.8988C27.1075 18.0665 27.1075 17.1585 27.1075 12.3231C27.1075 11.7137 27.3025 11.275 27.8723 11.0251L30.3616 11.0312Z" fill="white"/>
<path d="M38.2285 25.7721C37.6588 25.5253 37.4607 25.0927 37.4607 24.4742C37.479 19.6388 37.4607 19.2945 37.479 14.4469C37.479 14.1422 37.3907 14.0874 37.1134 14.0935C36.2725 14.1117 35.4315 14.0935 34.5906 14.0935C34.3744 14.1171 34.1562 14.0726 33.9666 13.966C33.777 13.8595 33.6255 13.6963 33.5333 13.4993C33.4453 13.3066 33.4188 13.0915 33.4575 12.8832C33.4962 12.6749 33.5982 12.4836 33.7496 12.3354C35.3797 10.3854 37.0037 8.42627 38.6246 6.47627C39.1487 5.85166 39.8129 5.85166 40.337 6.47627C41.9823 8.44455 43.6236 10.4138 45.2607 12.3842C45.3968 12.5319 45.4861 12.7167 45.5173 12.9151C45.5486 13.1136 45.5204 13.3168 45.4363 13.4993C45.3523 13.6817 45.2161 13.8352 45.045 13.9404C44.8738 14.0456 44.6754 14.0978 44.4746 14.0904C43.6032 14.0904 42.7288 14.0904 41.8574 14.0904C41.5801 14.0904 41.4918 14.1453 41.4918 14.4438C41.4918 19.2762 41.4918 19.6235 41.4918 24.4711C41.4918 25.0805 41.2968 25.5223 40.727 25.7691L38.2285 25.7721Z" fill="white"/>
<path d="M34.4413 39.2188H14.1369C12.508 39.2188 11.1875 40.5392 11.1875 42.1681V62.4725C11.1875 64.1014 12.508 65.4219 14.1369 65.4219H34.4413C36.0701 65.4219 37.3906 64.1014 37.3906 62.4725V42.1681C37.3906 40.5392 36.0701 39.2188 34.4413 39.2188Z" fill="white"/>
<path d="M63.6269 43.1451H43.8375C43.2553 43.1451 42.7833 43.6171 42.7833 44.1994V52.2066C42.7833 52.7888 43.2553 53.2608 43.8375 53.2608H63.6269C64.2092 53.2608 64.6812 52.7888 64.6812 52.2066V44.1994C64.6812 43.6171 64.2092 43.1451 63.6269 43.1451Z" fill="white"/>
<path d="M46.9974 51.296C46.6408 51.105 46.3523 50.808 46.1717 50.446C45.97 50.0253 45.8718 49.5625 45.8853 49.0962V47.2681C45.8714 46.8017 45.9697 46.3388 46.1717 45.9183C46.3513 45.5548 46.64 45.2565 46.9974 45.0652C47.4004 44.8548 47.8501 44.75 48.3045 44.7605C48.6972 44.7543 49.085 44.8476 49.4319 45.0317C49.7681 45.2203 50.0503 45.492 50.2515 45.8208C50.4817 46.2036 50.6339 46.6282 50.6994 47.07H49.3923C49.3517 46.8691 49.2753 46.6772 49.1668 46.5033C49.0716 46.357 48.9445 46.2341 48.7951 46.1438C48.645 46.0611 48.4759 46.0191 48.3045 46.0219C48.0923 46.0146 47.882 46.064 47.6952 46.1651C47.5283 46.2636 47.3962 46.4116 47.3174 46.5886C47.2243 46.7995 47.1796 47.0285 47.1863 47.2589V49.087C47.1796 49.3155 47.2244 49.5425 47.3174 49.7513C47.3957 49.9278 47.528 50.075 47.6952 50.1717C47.8811 50.2753 48.0919 50.3259 48.3045 50.318C48.4779 50.3211 48.649 50.2791 48.8012 50.1961C48.9524 50.1095 49.0801 49.9871 49.1729 49.8396C49.2806 49.6649 49.355 49.4717 49.3923 49.2699H50.6933C50.6239 49.7116 50.4698 50.1358 50.2393 50.5191C50.04 50.8476 49.7586 51.1185 49.4228 51.3052C49.0779 51.4919 48.6906 51.5864 48.2985 51.5794C47.8482 51.5925 47.4015 51.4952 46.9974 51.296V51.296Z" fill="#188DDB"/>
<path d="M53.0149 51.4908C52.7186 51.4294 52.4303 51.3344 52.1556 51.2074C51.8973 51.0886 51.6548 50.9381 51.4335 50.7595L52.0185 49.7205C52.2846 49.9357 52.5869 50.1019 52.9113 50.2111C53.246 50.3242 53.5969 50.3818 53.9503 50.3817C54.2824 50.3999 54.6131 50.3273 54.907 50.1715C55.0119 50.1139 55.0989 50.0286 55.1586 49.9249C55.2182 49.8212 55.2482 49.703 55.2452 49.5834V49.5834C55.2494 49.5065 55.2384 49.4294 55.2128 49.3568C55.1872 49.2841 55.1474 49.2172 55.0959 49.1599C54.9853 49.0514 54.849 48.9728 54.6998 48.9314C54.4947 48.8732 54.2861 48.8284 54.0752 48.7973H54.0447H54.0203H53.9198C53.5421 48.7414 53.17 48.6527 52.8077 48.5322C52.509 48.4232 52.2485 48.2294 52.0581 47.9747C51.8335 47.6435 51.7263 47.2466 51.7535 46.8473V46.8473C51.7458 46.456 51.8516 46.0708 52.0581 45.7383C52.2603 45.4243 52.5538 45.1797 52.8991 45.0375C53.3219 44.8676 53.775 44.7857 54.2306 44.7968C54.4776 44.7975 54.7238 44.8251 54.9649 44.879C55.2167 44.9357 55.4626 45.0163 55.6992 45.1197C55.9377 45.2227 56.1653 45.3493 56.3786 45.4976L55.8454 46.564C55.5965 46.3896 55.3248 46.2501 55.038 46.1496C54.779 46.0556 54.506 46.0061 54.2306 46.0033C53.9205 45.9854 53.6112 46.0506 53.3348 46.1922C53.2409 46.2464 53.1631 46.3247 53.1096 46.419C53.056 46.5132 53.0286 46.6201 53.0301 46.7285V46.7285C53.0255 46.8123 53.0377 46.8961 53.066 46.9751C53.0943 47.0541 53.138 47.1267 53.1946 47.1886C53.3098 47.3021 53.451 47.3858 53.606 47.4323C53.8302 47.5006 54.0581 47.5566 54.2885 47.5999H54.325H54.3646H54.4164H54.4682C54.831 47.6656 55.1862 47.7676 55.5285 47.9046C55.8146 48.0231 56.0609 48.2208 56.2385 48.4744C56.4459 48.7922 56.5462 49.168 56.5249 49.5469V49.5469C56.5335 49.9335 56.4275 50.3141 56.2202 50.6407C56.0072 50.9555 55.7032 51.1979 55.3488 51.3354C54.9099 51.505 54.442 51.5868 53.9716 51.5761C53.6506 51.5816 53.3298 51.553 53.0149 51.4908V51.4908Z" fill="#188DDB"/>
<path d="M56.863 44.8334H58.161L59.5808 49.291L61.0037 44.8334H62.2987L60.0744 51.5121H59.0903L56.863 44.8334Z" fill="#188DDB"/>
<path d="M53.2157 55.3704L53.2157 57.7392C53.2157 58.6719 52.6457 59.2374 51.7156 59.2374L17.3294 59.2374C16.3573 59.2374 15.7993 58.6778 15.7993 57.7096C15.7993 54.6894 15.7993 54.0231 15.7993 51L13 51C13 54.109 13 54.7397 13.015 57.8487C13.039 59.8592 14.2391 61.3012 16.2763 61.8993C16.3543 61.923 16.4593 61.8993 16.4953 62L52.5197 62C54.0468 61.7838 55.0639 60.9133 55.739 59.5839C55.919 59.2285 55.895 58.8406 56 58.4764L56 55.3704L53.2157 55.3704Z" fill="white"/>
<path d="M20.8352 46.7451H27.6403C27.7399 46.7542 27.8402 46.741 27.9341 46.7067C28.028 46.6723 28.1131 46.6176 28.1834 46.5464C28.2536 46.4752 28.3071 46.3893 28.3402 46.295C28.3733 46.2006 28.385 46.1001 28.3746 46.0007C28.3746 45.1163 28.3746 44.2331 28.3746 43.351C28.385 43.2516 28.3733 43.1511 28.3402 43.0567C28.3071 42.9623 28.2536 42.8765 28.1834 42.8053C28.1131 42.7341 28.028 42.6794 27.9341 42.645C27.8402 42.6106 27.7399 42.5975 27.6403 42.6065C27.2173 42.6065 26.7909 42.6065 26.368 42.6065C26.3135 42.6162 26.2573 42.6053 26.2104 42.5759C26.1636 42.5465 26.1292 42.5007 26.1142 42.4475C25.9935 42.162 25.8054 41.91 25.566 41.7132C25.2524 41.4709 24.886 41.3062 24.4966 41.2327H23.8943C23.8943 41.2665 23.8571 41.2733 23.83 41.28C23.4974 41.3448 23.1863 41.4917 22.9251 41.7074C22.6639 41.9232 22.4607 42.2009 22.3343 42.5152C22.2971 42.6065 22.2362 42.6167 22.1516 42.6133H20.8386C20.7387 42.6037 20.638 42.6165 20.5437 42.6506C20.4494 42.6847 20.3638 42.7394 20.2932 42.8106C20.2226 42.8819 20.1687 42.9679 20.1355 43.0626C20.1022 43.1572 20.0904 43.258 20.1009 43.3578C20.1009 44.2421 20.1009 45.1242 20.1009 46.004C20.091 46.1032 20.1032 46.2033 20.1365 46.2973C20.1698 46.3912 20.2234 46.4766 20.2936 46.5474C20.3637 46.6182 20.4487 46.6727 20.5423 46.7068C20.6359 46.741 20.7359 46.7541 20.8352 46.7451Z" fill="#1A8FDB"/>
<path d="M32.5134 45.4592C32.5274 45.2629 32.4991 45.0659 32.4305 44.8814C32.3619 44.6969 32.2546 44.5293 32.1157 44.3898C31.9769 44.2503 31.8097 44.1422 31.6256 44.0728C31.4414 44.0033 31.2445 43.9741 31.0481 43.9872C30.6759 43.9872 30.3003 43.9872 29.9281 43.9872C29.7893 43.9872 29.7487 44.021 29.7521 44.1632C29.7521 44.7587 29.7521 45.3543 29.7521 45.9499C29.7561 46.1588 29.7311 46.3672 29.6776 46.5692C29.562 47.0293 29.2911 47.4355 28.9107 47.7191C28.5304 48.0027 28.0638 48.1463 27.5897 48.1258H20.8963C20.6945 48.1304 20.493 48.1077 20.2973 48.0581C19.8344 47.9447 19.4247 47.6751 19.1374 47.2947C18.8501 46.9144 18.7028 46.4465 18.7204 45.9702C18.7204 45.3611 18.7204 44.7486 18.7204 44.1395C18.7204 44.0041 18.6832 43.9737 18.5546 43.9771C18.2162 43.9771 17.8778 43.9771 17.5191 43.9771C16.5039 43.9771 15.9591 44.5286 15.9591 45.5303V61.736C15.9591 62.7343 16.5073 63.2859 17.4988 63.2859H30.9669C31.9618 63.2859 32.51 62.7377 32.51 61.7394V45.4592H32.5134ZM24.0264 56.2066C23.1128 57.1203 22.2025 58.034 21.2854 58.9443C21.2222 59.0108 21.1461 59.0638 21.0618 59.1C20.9774 59.1362 20.8866 59.1549 20.7948 59.1549C20.703 59.1549 20.6121 59.1362 20.5278 59.1C20.4434 59.0638 20.3673 59.0108 20.3041 58.9443C19.8394 58.4931 19.3882 58.0419 18.9505 57.5907C18.8872 57.5265 18.8371 57.4504 18.8032 57.3669C18.7693 57.2833 18.7521 57.1939 18.7528 57.1037C18.7534 57.0135 18.7718 56.9243 18.8069 56.8412C18.842 56.7582 18.8931 56.6828 18.9573 56.6195C19.0215 56.5562 19.0976 56.5061 19.1811 56.4722C19.2647 56.4382 19.3541 56.4211 19.4443 56.4217C19.5345 56.4224 19.6236 56.4407 19.7067 56.4758C19.7898 56.5109 19.8652 56.562 19.9285 56.6263C20.1755 56.8631 20.4225 57.1034 20.656 57.3572C20.7677 57.4756 20.832 57.4858 20.9538 57.3572C21.6306 56.6499 22.348 55.9529 23.0519 55.2558C23.1338 55.1574 23.2421 55.0843 23.3639 55.0449C23.4858 55.0056 23.6163 55.0016 23.7404 55.0335C23.8644 55.0654 23.9768 55.1319 24.0646 55.2251C24.1524 55.3184 24.2119 55.4346 24.2362 55.5603C24.2362 55.6077 24.2362 55.6584 24.2566 55.6889C24.255 55.7862 24.2338 55.8823 24.1942 55.9712C24.1547 56.0602 24.0976 56.1402 24.0264 56.2066ZM24.0264 50.6976C23.1162 51.6045 22.2126 52.5148 21.299 53.4047C21.2355 53.4768 21.1574 53.5344 21.0698 53.5739C20.9823 53.6134 20.8874 53.6339 20.7914 53.6339C20.6954 53.6339 20.6004 53.6134 20.5129 53.5739C20.4254 53.5344 20.3473 53.4768 20.2838 53.4047C19.8326 52.9535 19.3814 52.5024 18.9302 52.0512C18.8667 51.9869 18.8164 51.9108 18.7823 51.8272C18.7481 51.7436 18.7308 51.654 18.7313 51.5637C18.7317 51.4733 18.75 51.384 18.785 51.3007C18.82 51.2174 18.8711 51.1418 18.9353 51.0783C18.9995 51.0147 19.0756 50.9644 19.1593 50.9303C19.2429 50.8962 19.3324 50.8788 19.4228 50.8793C19.5131 50.8798 19.6025 50.8981 19.6858 50.9331C19.7691 50.9681 19.8446 51.0191 19.9082 51.0833C20.1451 51.3135 20.3819 51.5436 20.6053 51.7838C20.7305 51.9226 20.8049 51.9395 20.9437 51.7838C21.6205 51.08 22.3153 50.384 23.0282 49.6959C23.1115 49.5994 23.2203 49.5285 23.3422 49.4911C23.464 49.4537 23.5939 49.4516 23.717 49.4848C23.84 49.518 23.9512 49.5853 24.0377 49.679C24.1241 49.7726 24.1824 49.8887 24.2058 50.014C24.216 50.0574 24.2228 50.1015 24.2261 50.146C24.2335 50.2489 24.2189 50.3522 24.1833 50.4491C24.1477 50.5459 24.0919 50.6341 24.0197 50.7077L24.0264 50.6976ZM29.0178 57.7768C28.1334 57.7768 27.2491 57.7768 26.3648 57.7768C26.1821 57.7768 26.007 57.7042 25.8778 57.5751C25.7487 57.446 25.6761 57.2708 25.6761 57.0882C25.6761 56.9055 25.7487 56.7304 25.8778 56.6012C26.007 56.4721 26.1821 56.3995 26.3648 56.3995H29.0178C29.2004 56.3995 29.3756 56.4721 29.5047 56.6012C29.6339 56.7304 29.7064 56.9055 29.7064 57.0882C29.7064 57.2708 29.6339 57.446 29.5047 57.5751C29.3756 57.7042 29.2004 57.7768 29.0178 57.7768V57.7768ZM29.0178 52.261H26.358C26.1753 52.261 26.0002 52.1884 25.871 52.0593C25.7419 51.9301 25.6694 51.755 25.6694 51.5723C25.6694 51.3897 25.7419 51.2145 25.871 51.0854C26.0002 50.9562 26.1753 50.8837 26.358 50.8837C26.8013 50.8837 27.248 50.8837 27.7116 50.8837C28.1752 50.8837 28.588 50.8837 29.0245 50.8837C29.2072 50.8837 29.3823 50.9562 29.5115 51.0854C29.6406 51.2145 29.7132 51.3897 29.7132 51.5723C29.7132 51.755 29.6406 51.9301 29.5115 52.0593C29.3823 52.1884 29.2072 52.261 29.0245 52.261H29.0178Z" fill="#1A8FDB"/>
<rect x="37.3907" y="30.6875" width="11.8828" height="2.4375" rx="1.21875" fill="white"/>
<rect x="37.3907" y="34.9531" width="8.83594" height="2.4375" rx="1.21875" fill="white"/>
</svg>
