<svg width="76" height="76" viewBox="0 0 76 76" fill="none" xmlns="http://www.w3.org/2000/svg">
<g clip-path="url(#clip0_214:534)">
<rect width="76" height="76" rx="5" fill="white"/>
<path d="M70.8281 -1H4.17188C2.53499 -1 0.965152 -0.349751 -0.1923 0.8077C-1.34975 1.96515 -2 3.53499 -2 5.17188L-2 71.8281C-2 73.465 -1.34975 75.0348 -0.1923 76.1923C0.965152 77.3498 2.53499 78 4.17188 78H70.8281C72.465 78 74.0348 77.3498 75.1923 76.1923C76.3498 75.0348 77 73.465 77 71.8281V5.17188C77 3.53499 76.3498 1.96515 75.1923 0.8077C74.0348 -0.349751 72.465 -1 70.8281 -1Z" fill="#5351D4"/>
<path fill-rule="evenodd" clip-rule="evenodd" d="M23.8494 14.3173C24.0525 14.1141 24.328 14 24.6153 14H44.9793C45.5775 14 46.0625 14.485 46.0625 15.0832V18.1161H43.8961V16.1664H25.064L16.1664 25.064V55.1613H22.8822V57.3277H15.0832C14.485 57.3277 14 56.8427 14 56.2445V24.6153C14 24.328 14.1141 24.0525 14.3173 23.8494L23.8494 14.3173ZM30.0312 20.7158C30.0312 20.1176 30.5162 19.6326 31.1144 19.6326H51.4785C51.7741 19.6326 52.0569 19.7534 52.2612 19.9671L61.7933 29.9324C61.9861 30.134 62.0937 30.4022 62.0937 30.6812V61.0106C62.0937 61.6088 61.6088 62.0938 61.0106 62.0938H35.8805V59.9274H59.9274V31.1158L51.0156 21.799H32.1976V29.8146H30.0312V20.7158Z" fill="white"/>
<path fill-rule="evenodd" clip-rule="evenodd" d="M50.6429 30.9251V21.1567H52.7462V29.815H60.9487V32.0351H51.6946C51.1138 32.0351 50.6429 31.5381 50.6429 30.9251Z" fill="white"/>
<path fill-rule="evenodd" clip-rule="evenodd" d="M26.3096 25.1412V14.8588H24.0311V23.9727H15.145V26.3097H25.1704C25.7996 26.3097 26.3096 25.7865 26.3096 25.1412Z" fill="white"/>
<path fill-rule="evenodd" clip-rule="evenodd" d="M26.403 43.0528L26.403 51.3127L23.8694 51.3127C23.467 51.3127 23.1042 51.5527 22.9502 51.9208C22.7962 52.289 22.8813 52.7127 23.1658 52.9944L30.3296 60.0876C30.7182 60.4724 31.3481 60.4724 31.7367 60.0876L38.9005 52.9944C39.185 52.7127 39.2701 52.289 39.1161 51.9208C38.9621 51.5527 38.5989 51.3127 38.1965 51.3127L35.6414 51.3127L35.6414 43.0528C35.6414 42.0273 34.7973 41.1959 33.756 41.1959L28.2884 41.1959C27.2471 41.1959 26.403 42.0273 26.403 43.0528Z" fill="white"/>
<path fill-rule="evenodd" clip-rule="evenodd" d="M46.5417 43.6332L46.5417 35.3732L49.0753 35.3732C49.4777 35.3732 49.8405 35.1332 49.9945 34.7651C50.1485 34.397 50.0634 33.9732 49.7789 33.6915L42.6151 26.5983C42.2265 26.2136 41.5966 26.2136 41.208 26.5983L34.0442 33.6915C33.7597 33.9732 33.6746 34.397 33.8286 34.7651C33.9826 35.1332 34.3458 35.3732 34.7482 35.3732L37.3033 35.3732L37.3033 43.6332C37.3033 44.6587 38.1474 45.49 39.1887 45.49L44.6563 45.49C45.6976 45.49 46.5417 44.6587 46.5417 43.6332Z" fill="white"/>
</g>
<defs>
<clipPath id="clip0_214:534">
<rect width="76" height="76" rx="5" fill="white"/>
</clipPath>
</defs>
</svg>
