<svg id="Layer_1" data-name="Layer 1" xmlns="http://www.w3.org/2000/svg" viewBox="0 0 508.3 559.5"><defs><style>.cls-1{fill:#b5becb;}</style></defs><title>icon</title><g id="Layer_2" data-name="Layer 2"><path class="cls-1" d="M504.5,150h0L330.9,49.8c-22.1-12.8-58.4-12.8-80.5,0L76.8,150c-22.1,12.8-40.3,44.2-40.3,69.7V420.2c0,25.6,18.1,56.9,40.3,69.7L250.4,590.1c22.1,12.8,58.4,12.8,80.5,0L504.5,490c22.2-12.8,40.3-44.2,40.3-69.7V219.8C544.8,194.2,526.7,162.8,504.5,150ZM416,223.4v59.3H256V223.4ZM178.3,413.9a29.6,29.6,0,1,1,29.6-29.6A29.6,29.6,0,0,1,178.3,413.9Zm0-131.2a29.6,29.6,0,1,1,29.6-29.6A29.6,29.6,0,0,1,178.3,282.7ZM256,413.9V354.6H416v59.3Z" transform="translate(-36.5 -40.2)"/></g></svg>