<svg width="76" height="76" viewBox="0 0 76 76" fill="none" xmlns="http://www.w3.org/2000/svg">
<g clip-path="url(#clip0_214:505)">
<rect width="76" height="76" rx="5" fill="white"/>
<path d="M73.4375 -4H2.5625C-1.06187 -4 -4 -1.06187 -4 2.5625V73.4375C-4 77.0619 -1.06187 80 2.5625 80H73.4375C77.0619 80 80 77.0619 80 73.4375V2.5625C80 -1.06187 77.0619 -4 73.4375 -4Z" fill="#8349E6"/>
<path d="M52.9805 55.3193L52.9805 57.6943C52.9805 58.6294 52.4165 59.1965 51.4962 59.1965L17.4713 59.1965C16.5094 59.1965 15.9573 58.6354 15.9573 57.6646C15.9573 54.6365 15.9573 53.9685 15.9573 50.9374L13.1874 50.9374C13.1874 54.0546 13.1874 54.6869 13.2023 57.8041C13.226 59.8199 14.4135 61.2657 16.4293 61.8654C16.5065 61.8891 16.6104 61.8654 16.646 61.9663L52.2918 61.9663C53.8029 61.7496 54.8093 60.8768 55.4773 59.5438C55.6554 59.1876 55.6316 58.7987 55.7355 58.4335L55.7355 55.3193L52.9805 55.3193Z" fill="white"/>
<path d="M26.4073 20.1926H24.0323C23.0971 20.1926 22.5301 20.7567 22.5301 21.677V55.7018C22.5301 56.6637 23.0912 57.2159 24.062 57.2159C27.0901 57.2159 34.5862 57.2159 37.6173 57.2159V59.9857C34.5001 59.9857 27.0396 59.9857 23.9224 59.9709C21.9067 59.9472 20.4609 58.7597 19.8612 56.7439C19.8374 56.6667 19.8612 56.5628 19.7603 56.5272V20.8814C19.977 19.3703 20.8498 18.3639 22.1828 17.6959C22.539 17.5178 22.9279 17.5415 23.2931 17.4376H26.4073V20.1926Z" fill="white"/>
<path d="M42.7176 20.1895H44.2198C44.4929 20.1895 44.576 20.2518 44.5731 20.5368C44.5582 22.1875 44.5731 23.8381 44.5731 25.4887C44.5731 27.3145 45.7309 28.4575 47.5656 28.4575C49.2162 28.4575 50.8668 28.4575 52.5174 28.4575C52.7817 28.4575 52.8529 28.5198 52.847 28.787C52.847 29.9478 52.847 49.8057 52.847 49.8057L55.6168 49.7582C55.6168 49.7582 55.5901 29.0423 55.6168 27.4481C55.6308 27.1489 55.5791 26.8504 55.4652 26.5734C55.3513 26.2964 55.1781 26.0478 54.9577 25.845C52.4086 23.3215 49.8703 20.7852 47.3429 18.2361C47.0458 17.9121 46.6941 17.6428 46.3038 17.4404H42.7413L42.7176 20.1895Z" fill="white"/>
<path d="M36.4862 20.1925H32.425V17.4375H36.4862V20.1925Z" fill="white"/>
<path d="M30.7567 11.8947C31.3118 12.1382 31.5048 12.5568 31.5048 13.1594C31.49 17.8708 31.5048 18.7555 31.487 23.4639C31.487 23.7608 31.576 23.8143 31.8432 23.8083C32.6626 23.8083 33.482 23.8083 34.3014 23.8083C34.5137 23.7864 34.7275 23.832 34.9124 23.9386C35.0974 24.0452 35.244 24.2074 35.3315 24.4021C35.4132 24.5855 35.4377 24.7894 35.4017 24.9869C35.3657 25.1845 35.2708 25.3666 35.1296 25.5094C33.5463 27.4114 31.963 29.3144 30.3796 31.2183C29.869 31.8269 29.2218 31.8269 28.7142 31.2183C27.111 29.3045 25.5109 27.3857 23.9137 25.4619C23.7807 25.3183 23.6933 25.1384 23.6626 24.9451C23.6319 24.7517 23.6593 24.5536 23.7414 24.3759C23.8234 24.1981 23.9564 24.0487 24.1234 23.9466C24.2905 23.8445 24.484 23.7943 24.6796 23.8024C25.5317 23.8024 26.3807 23.8024 27.2298 23.8024C27.4999 23.8024 27.586 23.7519 27.586 23.458C27.586 18.7496 27.586 17.8649 27.586 13.1535C27.586 12.5597 27.776 12.1322 28.3312 11.8888L30.7567 11.8947Z" fill="white"/>
<path d="M38.4219 26.2575C37.8668 26.0171 37.6738 25.5955 37.6738 24.9929C37.6916 20.2814 37.6738 19.946 37.6916 15.2227C37.6916 14.9258 37.6055 14.8724 37.3354 14.8783C36.516 14.8961 35.6966 14.8783 34.8772 14.8783C34.6666 14.9014 34.454 14.858 34.2693 14.7542C34.0845 14.6504 33.9369 14.4913 33.8471 14.2994C33.7613 14.1117 33.7355 13.902 33.7732 13.6991C33.811 13.4961 33.9104 13.3097 34.0579 13.1654C35.6462 11.2654 37.2285 9.35645 38.8079 7.45645C39.3185 6.84785 39.9657 6.84785 40.4763 7.45645C42.0794 9.37426 43.6786 11.2931 45.2738 13.2129C45.4064 13.3568 45.4934 13.5369 45.5238 13.7302C45.5543 13.9236 45.5268 14.1216 45.4449 14.2994C45.363 14.4771 45.2303 14.6267 45.0636 14.7292C44.8968 14.8317 44.7035 14.8825 44.5079 14.8754C43.6588 14.8754 42.8068 14.8754 41.9577 14.8754C41.6876 14.8754 41.6015 14.9288 41.6015 15.2197C41.6015 19.9282 41.6015 20.2666 41.6015 24.9899C41.6015 25.5836 41.4115 26.0141 40.8563 26.2546L38.4219 26.2575Z" fill="white"/>
<path d="M34.8089 44.6283H14.8738C13.2866 44.6283 12 45.9149 12 47.502V65.4986C12 67.0857 13.2866 68.3724 14.8738 68.3724H34.8089C36.396 68.3724 37.6827 67.0857 37.6827 65.4986V47.502C37.6827 45.9149 36.396 44.6283 34.8089 44.6283Z" fill="white"/>
<path d="M63.1694 43.1854H43.8874C43.3201 43.1854 42.8602 43.6453 42.8602 44.2126V52.0145C42.8602 52.5818 43.3201 53.0417 43.8874 53.0417H63.1694C63.7367 53.0417 64.1966 52.5818 64.1966 52.0145V44.2126C64.1966 43.6453 63.7367 43.1854 63.1694 43.1854Z" fill="white"/>
<path d="M46.966 51.1268C46.6177 50.9404 46.3364 50.6498 46.1614 50.2956C45.9644 49.8869 45.8687 49.4369 45.8824 48.9834V47.2022C45.8685 46.7477 45.9642 46.2966 46.1614 45.887C46.3364 45.5328 46.6177 45.2422 46.966 45.0558C47.3586 44.8508 47.7968 44.7487 48.2396 44.7589C48.6221 44.7529 49 44.8438 49.338 45.0231C49.6655 45.2069 49.9405 45.4716 50.1366 45.792C50.3609 46.165 50.5092 46.5787 50.573 47.0092H49.2994C49.2599 46.8134 49.1855 46.6264 49.0797 46.457C48.9869 46.3144 48.8631 46.1947 48.7175 46.1067C48.5713 46.0262 48.4065 45.9852 48.2396 45.9879C48.0326 45.9794 47.8273 46.0276 47.6458 46.1275C47.4832 46.2234 47.3545 46.3677 47.2777 46.5401C47.187 46.7456 47.1434 46.9688 47.15 47.1933V48.9745C47.1435 49.1971 47.1871 49.4183 47.2777 49.6217C47.354 49.7937 47.4829 49.9371 47.6458 50.0314C47.827 50.1323 48.0323 50.1816 48.2396 50.1739C48.4084 50.1769 48.5752 50.136 48.7235 50.0551C48.8708 49.9708 48.9952 49.8515 49.0856 49.7078C49.1906 49.5375 49.2631 49.3493 49.2994 49.1526H50.5671C50.4995 49.5831 50.3493 49.9964 50.1247 50.3698C49.9305 50.6899 49.6563 50.9539 49.3291 51.1358C48.9928 51.3168 48.6154 51.4078 48.2336 51.4C47.795 51.4151 47.3594 51.3213 46.966 51.1268V51.1268Z" fill="#8B51E8"/>
<path d="M52.8291 51.3169C52.5404 51.2571 52.2595 51.1645 51.9919 51.0408C51.7402 50.925 51.5039 50.7784 51.2883 50.6044L51.8583 49.592C52.117 49.8018 52.4118 49.9628 52.7282 50.067C53.0538 50.1796 53.396 50.2368 53.7405 50.2362C54.0641 50.254 54.3864 50.1832 54.6727 50.0314C54.7749 49.9753 54.8597 49.8922 54.9179 49.7911C54.976 49.6901 55.0052 49.575 55.0022 49.4584V49.4584C55.0064 49.3834 54.9956 49.3084 54.9707 49.2376C54.9457 49.1668 54.907 49.1016 54.8568 49.0458C54.7491 48.94 54.6163 48.8634 54.4708 48.8231C54.271 48.7664 54.0677 48.7228 53.8622 48.6925H53.8326H53.8088H53.7108C53.3427 48.6402 52.98 48.5548 52.6272 48.4372C52.3362 48.3309 52.0824 48.1421 51.8969 47.8939C51.6781 47.5712 51.5735 47.1845 51.6 46.7954V46.7954C51.5925 46.4141 51.6957 46.0388 51.8969 45.7148C52.0939 45.4089 52.3798 45.1706 52.7163 45.032C53.1283 44.8664 53.5697 44.7866 54.0136 44.7975C54.2543 44.7982 54.4942 44.8251 54.7291 44.8776C55.2214 44.9877 55.6886 45.1891 56.1066 45.4714L55.5871 46.5134C55.3445 46.3435 55.0798 46.2077 54.8004 46.1097C54.5481 46.0181 54.2821 45.9699 54.0136 45.9672C53.7115 45.9496 53.4102 46.0132 53.1408 46.1512C53.0493 46.204 52.9736 46.2803 52.9214 46.3721C52.8692 46.464 52.8425 46.5681 52.844 46.6737V46.6737C52.8395 46.7554 52.8514 46.8371 52.8789 46.914C52.9065 46.991 52.9491 47.0617 53.0043 47.122C53.1165 47.2326 53.2541 47.3142 53.4051 47.3595C53.6236 47.4261 53.8456 47.4806 54.0701 47.5228H54.1057H54.1443H54.1947H54.2452C54.5987 47.5868 54.9448 47.6862 55.2783 47.8197C55.557 47.9351 55.797 48.1277 55.9701 48.3748C56.1721 48.6845 56.2699 49.0506 56.2491 49.4198C56.2575 49.7966 56.1542 50.1674 55.9522 50.4856C55.7447 50.7924 55.4485 51.0285 55.1032 51.1625C54.6753 51.3267 54.2194 51.4054 53.7613 51.394C53.4487 51.4014 53.1362 51.3755 52.8291 51.3169V51.3169Z" fill="#8B51E8"/>
<path d="M56.5787 44.8302H57.8434L59.2269 49.1735L60.6133 44.8302H61.875L59.7078 51.3377H58.7489L56.5787 44.8302Z" fill="#8B51E8"/>
<path d="M20.6807 55.4937H20.0454C19.1811 55.4643 18.3201 55.6119 17.515 55.9274C16.7099 56.2429 15.9778 56.7196 15.3636 57.3283L15.1885 57.5332V63.5627H18.1572V60.1368L18.558 59.6855L18.7391 59.4747C19.6894 58.5035 20.87 57.7886 22.171 57.3966C21.5218 56.9007 21.0107 56.2465 20.6866 55.4966L20.6807 55.4937Z" fill="#6329DB"/>
<path d="M34.7646 57.3046C34.1515 56.6944 33.4195 56.2167 32.6142 55.9011C31.8088 55.5855 30.9472 55.4388 30.0828 55.4699C29.8181 55.4704 29.5535 55.4843 29.2902 55.5115C28.9577 56.2158 28.4571 56.8275 27.8325 57.2927C29.222 57.6782 30.4809 58.4333 31.4752 59.4777L31.6563 59.6826L32.0511 60.1338V63.5627H34.9189V57.5065L34.7646 57.3046Z" fill="#6329DB"/>
<path d="M20.0247 54.0716H20.2503C20.1453 53.1709 20.3034 52.259 20.7053 51.4462C21.1073 50.6333 21.736 49.9542 22.5155 49.4908C22.0898 48.8377 21.4244 48.3782 20.6629 48.2116C19.9013 48.0449 19.1048 48.1845 18.4453 48.6002C18.0067 48.8726 17.6474 49.2555 17.4033 49.7105C17.1552 50.1639 17.0298 50.6741 17.0394 51.1908C17.049 51.7076 17.1934 52.2128 17.4582 52.6566C17.7229 53.1004 18.099 53.4674 18.5491 53.7213C18.9993 53.9752 19.5079 54.1072 20.0247 54.1043V54.0716Z" fill="#6329DB"/>
<path d="M29.7324 53.5253C29.7414 53.6925 29.7414 53.8599 29.7324 54.0271C29.8717 54.0508 30.0127 54.0628 30.154 54.0627H30.2906C31.067 54.0242 31.7974 53.6826 32.3248 53.1114C32.8521 52.5402 33.1344 51.7849 33.1109 51.0078C33.0923 50.2329 32.7713 49.496 32.2166 48.9545C31.6618 48.4131 30.9173 48.1101 30.1421 48.1104C29.6274 48.111 29.1217 48.2454 28.6747 48.5004C28.2276 48.7554 27.8545 49.1223 27.592 49.565C28.2512 49.9949 28.7933 50.5819 29.1695 51.2732C29.5457 51.9644 29.7442 52.7383 29.7473 53.5253H29.7324Z" fill="#6329DB"/>
<path d="M24.9557 56.7881C25.6016 56.7881 26.233 56.5966 26.77 56.2377C27.3071 55.8789 27.7256 55.3689 27.9728 54.7722C28.22 54.1754 28.2846 53.5188 28.1586 52.8854C28.0326 52.2519 27.7216 51.67 27.2649 51.2133C26.8082 50.7566 26.2263 50.4456 25.5928 50.3196C24.9594 50.1936 24.3028 50.2583 23.706 50.5054C23.1093 50.7526 22.5993 51.1711 22.2405 51.7082C21.8816 52.2452 21.6901 52.8766 21.6901 53.5225C21.6901 54.3886 22.0342 55.2192 22.6466 55.8316C23.259 56.444 24.0897 56.7881 24.9557 56.7881Z" fill="#6329DB"/>
<path d="M25.1278 58.5218C24.1768 58.4823 23.2276 58.6361 22.3377 58.9739C21.4478 59.3117 20.6356 59.8265 19.9503 60.4871L19.7692 60.689V65.2906C19.7733 65.5168 19.8447 65.7368 19.9742 65.9223C20.1038 66.1079 20.2856 66.2507 20.4966 66.3326C20.6361 66.3888 20.7856 66.4161 20.9359 66.4127H29.3019C29.4522 66.4158 29.6017 66.3886 29.7413 66.3326C30.0202 66.224 30.246 66.011 30.3706 65.7388C30.4305 65.601 30.4627 65.4527 30.4656 65.3024V60.7038L30.2905 60.4871C29.6098 59.8243 28.8005 59.308 27.9126 58.97C27.0247 58.632 26.0769 58.4795 25.1278 58.5218V58.5218Z" fill="#6329DB"/>
<path d="M33.0781 32.8281H48.5156" stroke="white"/>
<path d="M33.0781 36.0938H48.5156" stroke="white"/>
<path d="M38.125 32.8281L38.125 39.6563" stroke="white"/>
<path d="M44.0625 32.8281L44.0625 39.6563" stroke="white"/>
<path d="M33.0781 39.6562H48.5156" stroke="white"/>
</g>
<defs>
<clipPath id="clip0_214:505">
<rect width="76" height="76" rx="5" fill="white"/>
</clipPath>
</defs>
</svg>
