<svg width="18" height="15" viewBox="0 0 18 15" fill="none" xmlns="http://www.w3.org/2000/svg">
<path d="M16.3764 1.74463C15.5229 1.76076 14.814 2.59947 14.8574 3.55108C14.8718 4.08334 15.1033 4.53495 15.4505 4.8414C13.6566 7.51882 11.8338 7.7285 9.72168 3.29302C10.4739 2.87366 10.8935 1.80915 10.3437 0.744629C10.0833 0.2285 9.54807 -0.0295643 9.0128 0.00269373C8.99834 0.00269373 8.99834 0.00269373 8.98387 0.00269373C8.98387 0.00269373 8.9694 0.00269373 8.95494 0.00269373C8.41967 -0.0134353 7.89886 0.2285 7.62399 0.744629C7.07426 1.80915 7.49379 2.87366 8.24606 3.29302C6.13391 7.7285 4.3111 7.51882 2.51722 4.8414C2.86442 4.53495 3.09589 4.06721 3.11036 3.55108C3.13929 2.59947 2.44489 1.76076 1.59135 1.74463C0.708872 1.7285 0 2.50269 0 3.48656C0 4.43818 0.694405 5.2285 1.56241 5.2285C1.62028 5.2285 1.69261 5.2285 1.75048 5.21237L2.34362 11.6962C2.38702 12.2124 2.77762 12.5995 3.24056 12.5995H8.98387H14.7272C15.1901 12.5995 15.5807 12.2124 15.6241 11.6962L16.2173 5.21237C16.2751 5.2285 16.333 5.2285 16.4053 5.2285C17.2589 5.2285 17.9677 4.45431 17.9677 3.48656C17.9677 2.50269 17.2444 1.7285 16.3764 1.74463Z" fill="white"/>
<rect x="2.45898" y="13.5483" width="13.0201" height="1.45161" rx="0.725806" fill="white"/>
</svg>
