<svg width="20" height="16" viewBox="0 0 20 16" fill="none" xmlns="http://www.w3.org/2000/svg">
<path d="M2.04889 1.80188L5.85389 5.14988L9.24389 0.975878C9.33881 0.859188 9.45884 0.765417 9.59503 0.701548C9.73123 0.63768 9.88007 0.605359 10.0305 0.606993C10.1809 0.608626 10.329 0.644173 10.4638 0.710986C10.5986 0.777798 10.7165 0.874154 10.8089 0.992878L14.0439 5.14888L17.9719 1.75288C18.1261 1.61979 18.3174 1.53699 18.52 1.51556C18.7226 1.49413 18.9269 1.5351 19.1056 1.63298C19.2843 1.73085 19.4288 1.88097 19.5198 2.06324C19.6108 2.24551 19.644 2.45123 19.6149 2.65288L18.1149 12.9999H1.92189L0.398888 2.69988C0.368636 2.49711 0.401433 2.28995 0.492839 2.10645C0.584245 1.92294 0.729841 1.77197 0.909909 1.67397C1.08998 1.57597 1.29581 1.53568 1.49954 1.55856C1.70327 1.58144 1.89504 1.66638 2.04889 1.80188ZM1.99989 13.9999H17.9999V14.9999C17.9999 15.2651 17.8945 15.5194 17.707 15.707C17.5195 15.8945 17.2651 15.9999 16.9999 15.9999H2.99989C2.73467 15.9999 2.48032 15.8945 2.29278 15.707C2.10525 15.5194 1.99989 15.2651 1.99989 14.9999V13.9999Z" fill="#007CBA"/>
</svg>
