<svg width="76" height="76" viewBox="0 0 76 76" fill="none" xmlns="http://www.w3.org/2000/svg">
<g clip-path="url(#clip0_214:471)">
<rect width="76" height="76" rx="5" fill="white"/>
<path d="M70.9062 -1H5.09375C1.72826 -1 -1 1.72826 -1 5.09375V70.9062C-1 74.2717 1.72826 77 5.09375 77H70.9062C74.2717 77 77 74.2717 77 70.9062V5.09375C77 1.72826 74.2717 -1 70.9062 -1Z" fill="#1E9BE9"/>
<path d="M26.2824 16.7548H23.9074C22.9723 16.7548 22.4052 17.3188 22.4052 18.2391V52.264C22.4052 53.2258 22.9663 53.778 23.9371 53.778C26.9652 53.778 34.4613 53.778 37.4924 53.778V56.5479C34.3752 56.5479 26.9147 56.5479 23.7976 56.533C21.7818 56.5093 20.336 55.3218 19.7363 53.306C19.7126 53.2288 19.7363 53.1249 19.6354 53.0893V17.4435C19.8521 15.9324 20.7249 14.926 22.0579 14.258C22.4141 14.0799 22.803 14.1037 23.1682 13.9998H26.2824V16.7548Z" fill="white"/>
<path d="M42.5927 16.752H44.0948C44.368 16.752 44.4511 16.8143 44.4481 17.0993C44.4333 18.75 44.4481 20.4006 44.4481 22.0512C44.4481 23.877 45.6059 25.02 47.4406 25.02C49.0912 25.02 50.7419 25.02 52.3925 25.02C52.6567 25.02 52.728 25.0823 52.722 25.3495C52.722 26.5103 52.722 46.3682 52.722 46.3682L55.4919 46.3207C55.4919 46.3207 55.4652 25.6048 55.4919 24.0106C55.5059 23.7114 55.4541 23.4129 55.3403 23.1359C55.2264 22.8589 55.0532 22.6103 54.8328 22.4075C52.2836 19.884 49.7454 17.3477 47.218 14.7986C46.9208 14.4746 46.5692 14.2053 46.1789 14.0029H42.6164L42.5927 16.752Z" fill="white"/>
<path d="M36.3614 16.7548H32.3001V13.9998H36.3614V16.7548Z" fill="white"/>
<path d="M30.6315 8.45735C31.1866 8.70079 31.3796 9.11938 31.3796 9.72204C31.3648 14.4334 31.3796 15.3181 31.3618 20.0266C31.3618 20.3234 31.4509 20.3769 31.718 20.3709C32.5374 20.3709 33.3568 20.3709 34.1762 20.3709C34.3885 20.3491 34.6023 20.3947 34.7873 20.5012C34.9722 20.6078 35.1188 20.77 35.2063 20.9647C35.2881 21.1481 35.3125 21.352 35.2765 21.5496C35.2405 21.7471 35.1457 21.9292 35.0045 22.072C33.4211 23.974 31.8378 25.877 30.2545 27.7809C29.7438 28.3895 29.0966 28.3895 28.589 27.7809C26.9859 25.8671 25.3857 23.9483 23.7885 22.0245C23.6555 21.8809 23.5681 21.701 23.5374 21.5077C23.5067 21.3143 23.5342 21.1162 23.6162 20.9385C23.6982 20.7607 23.8312 20.6114 23.9982 20.5093C24.1653 20.4072 24.3589 20.357 24.5545 20.365C25.4065 20.365 26.2555 20.365 27.1046 20.365C27.3748 20.365 27.4609 20.3145 27.4609 20.0206C27.4609 15.3122 27.4609 14.4275 27.4609 9.7161C27.4609 9.12235 27.6509 8.69485 28.206 8.45142L30.6315 8.45735Z" fill="white"/>
<path d="M38.297 22.82C37.7418 22.5796 37.5489 22.158 37.5489 21.5554C37.5667 16.8439 37.5489 16.5085 37.5667 11.7852C37.5667 11.4883 37.4806 11.4349 37.2104 11.4408C36.3911 11.4586 35.5717 11.4408 34.7523 11.4408C34.5417 11.4639 34.3291 11.4205 34.1443 11.3167C33.9596 11.2129 33.812 11.0538 33.7222 10.8619C33.6364 10.6742 33.6106 10.4645 33.6483 10.2616C33.686 10.0586 33.7854 9.87225 33.9329 9.72785C35.5212 7.82785 37.1036 5.91895 38.6829 4.01895C39.1936 3.41035 39.8407 3.41035 40.3514 4.01895C41.9545 5.93676 43.5537 7.85556 45.1489 9.77535C45.2814 9.91935 45.3684 10.0994 45.3989 10.2927C45.4293 10.4861 45.4019 10.6841 45.32 10.8619C45.2381 11.0396 45.1054 11.1892 44.9386 11.2917C44.7719 11.3942 44.5785 11.445 44.3829 11.4379C43.5339 11.4379 42.6818 11.4379 41.8328 11.4379C41.5626 11.4379 41.4765 11.4913 41.4765 11.7822C41.4765 16.4907 41.4765 16.8291 41.4765 21.5524C41.4765 22.1461 41.2865 22.5766 40.7314 22.8171L38.297 22.82Z" fill="white"/>
<path d="M34.6839 41.1907H14.7488C13.1616 41.1907 11.875 42.4773 11.875 44.0644V62.061C11.875 63.6481 13.1616 64.9347 14.7488 64.9347H34.6839C36.271 64.9347 37.5577 63.6481 37.5577 62.061V44.0644C37.5577 42.4773 36.271 41.1907 34.6839 41.1907Z" fill="white"/>
<path d="M62.7623 41.5625H43.4803C42.913 41.5625 42.4531 42.0224 42.4531 42.5897V50.3916C42.4531 50.9589 42.913 51.4188 43.4803 51.4188H62.7623C63.3296 51.4188 63.7895 50.9589 63.7895 50.3916V42.5897C63.7895 42.0224 63.3296 41.5625 62.7623 41.5625Z" fill="white"/>
<path d="M46.5587 49.5038C46.2104 49.3174 45.9291 49.0268 45.7542 48.6726C45.5572 48.2639 45.4615 47.8138 45.4751 47.3604V45.5791C45.4616 45.1247 45.5573 44.6737 45.7542 44.264C45.9291 43.9098 46.2104 43.6191 46.5587 43.4327C46.9513 43.2277 47.3895 43.1256 47.8323 43.1358C48.2149 43.1298 48.5927 43.2207 48.9307 43.4C49.2583 43.5839 49.5332 43.8486 49.7293 44.169C49.9536 44.542 50.1019 44.9556 50.1657 45.3861H48.8921C48.8526 45.1904 48.7782 45.0034 48.6724 44.834C48.5797 44.6914 48.4558 44.5716 48.3103 44.4836C48.164 44.4031 47.9992 44.3622 47.8323 44.3649C47.6255 44.3578 47.4205 44.406 47.2385 44.5044C47.0759 44.6004 46.9472 44.7446 46.8704 44.9171C46.7798 45.1226 46.7361 45.3457 46.7428 45.5702V47.3515C46.7362 47.574 46.7799 47.7952 46.8704 47.9986C46.9467 48.1707 47.0756 48.3141 47.2385 48.4083C47.4197 48.5092 47.6251 48.5585 47.8323 48.5508C48.0012 48.5539 48.1679 48.513 48.3162 48.4321C48.4636 48.3477 48.5879 48.2284 48.6784 48.0847C48.7833 47.9145 48.8558 47.7263 48.8921 47.5296H50.1598C50.0922 47.96 49.942 48.3734 49.7174 48.7468C49.5232 49.0669 49.249 49.3308 48.9218 49.5127C48.5855 49.6938 48.2082 49.7848 47.8263 49.7769C47.3877 49.7921 46.9522 49.6983 46.5587 49.5038V49.5038Z" fill="#007FFF"/>
<path d="M52.4219 49.6938C52.1332 49.6341 51.8523 49.5414 51.5847 49.4177C51.333 49.3019 51.0967 49.1553 50.8811 48.9813L51.4511 47.969C51.7104 48.1787 52.0049 48.3405 52.3209 48.4469C52.6471 48.5571 52.989 48.6133 53.3333 48.6132C53.6569 48.631 53.9792 48.5601 54.2655 48.4083C54.3677 48.3523 54.4525 48.2691 54.5106 48.1681C54.5687 48.067 54.5979 47.9519 54.595 47.8354V47.8354C54.5991 47.7604 54.5884 47.6853 54.5634 47.6145C54.5385 47.5437 54.4998 47.4785 54.4495 47.4227C54.3418 47.317 54.209 47.2404 54.0636 47.2001C53.8638 47.1433 53.6605 47.0997 53.455 47.0694H53.4253H53.4016H53.3036C52.9355 47.0172 52.5728 46.9317 52.22 46.8141C51.929 46.7078 51.6752 46.5191 51.4897 46.2708C51.2708 45.9481 51.1663 45.5614 51.1928 45.1724V45.1724C51.1849 44.792 51.288 44.4175 51.4897 44.0947C51.6862 43.7877 51.9722 43.5483 52.3091 43.409C52.7211 43.2434 53.1625 43.1636 53.6064 43.1744C53.8471 43.1752 54.087 43.2021 54.3219 43.2546C54.5673 43.3098 54.8069 43.3884 55.0374 43.4891C55.2697 43.5895 55.4915 43.7128 55.6994 43.8572L55.1799 44.8963C54.9373 44.7264 54.6726 44.5905 54.3931 44.4926C54.1408 44.4009 53.8748 44.3528 53.6064 44.3501C53.3043 44.3325 53.0029 44.3961 52.7336 44.5341C52.6421 44.5869 52.5664 44.6632 52.5142 44.755C52.462 44.8469 52.4353 44.951 52.4367 45.0566V45.0566C52.4323 45.1382 52.4442 45.2199 52.4717 45.2969C52.4992 45.3739 52.5419 45.4446 52.597 45.5049C52.7093 45.6155 52.8469 45.697 52.9978 45.7424C53.2163 45.809 53.4383 45.8635 53.6628 45.9057H53.6984H53.737H53.7875H53.838C54.1915 45.9697 54.5376 46.0691 54.8711 46.2026C55.1498 46.318 55.3898 46.5106 55.5628 46.7577C55.7649 47.0674 55.8627 47.4335 55.8419 47.8027C55.8507 48.1795 55.7473 48.5505 55.545 48.8685C55.3375 49.1753 55.0413 49.4114 54.6959 49.5454C54.2681 49.7096 53.8122 49.7883 53.3541 49.7769C53.0413 49.7823 52.7288 49.7545 52.4219 49.6938V49.6938Z" fill="#007FFF"/>
<path d="M56.1716 43.2072H57.4363L58.8198 47.5504L60.2062 43.2072H61.4679L59.3007 49.7147H58.3418L56.1716 43.2072Z" fill="#007FFF"/>
<path d="M20.9449 44.5312H14.5469V48.5417H17.96V58.4844H28.9794V48.7421H32.3594V44.5312H25.8772C25.6196 44.9467 25.2628 45.2904 24.8394 45.531C24.4159 45.7716 23.9395 45.9014 23.4534 45.9086C22.9674 45.9157 22.4874 45.8 22.0572 45.572C21.627 45.3439 21.2603 45.0109 20.9908 44.6032L20.9449 44.5312Z" fill="#26A8F6"/>
<rect x="24.1078" y="52.782" width="9.32434" height="9.55177" fill="white"/>
<path d="M34.5269 52.1475H23.1557V55.5588H23.7243V61.8129C23.7243 62.1145 23.8441 62.4038 24.0573 62.617C24.2706 62.8303 24.5598 62.9501 24.8614 62.9501H32.8212C33.1228 62.9501 33.412 62.8303 33.6252 62.617C33.8385 62.4038 33.9583 62.1145 33.9583 61.8129V55.5588H34.5269V52.1475ZM24.2928 53.2846H33.3897V54.4217H24.2928V53.2846ZM32.8212 61.8129H24.8614V55.5588H32.8212V61.8129ZM29.4098 56.1274V59.0668L30.8824 57.5999L31.6841 58.4016L28.8413 61.2444L25.9985 58.4016L26.8002 57.5942L28.2727 59.0668V56.1274H29.4098Z" fill="#358CDB"/>
<path fill-rule="evenodd" clip-rule="evenodd" d="M53.0575 55.5157L53.0575 53.1407L55.8125 53.1407L55.8125 56.2549C55.7722 56.3967 55.7511 56.542 55.7299 56.6876C55.6966 56.9171 55.6632 57.1473 55.5542 57.3652C54.8863 58.6982 53.8798 59.571 52.3688 59.7877L35.9219 59.7877L35.9219 57.0179L51.5731 57.0179C52.4934 57.0179 53.0575 56.4508 53.0575 55.5157Z" fill="white"/>
<rect x="33.5469" y="30.2812" width="15.4375" height="2.375" rx="1.1875" fill="white"/>
<rect x="33.5469" y="34.4375" width="11.5781" height="2.375" rx="1.1875" fill="white"/>
</g>
<defs>
<clipPath id="clip0_214:471">
<rect width="76" height="76" rx="5" fill="white"/>
</clipPath>
</defs>
</svg>
