<?xml version="1.0" encoding="utf-8"?>
<!-- Generator: Adobe Illustrator 19.2.1, SVG Export Plug-In . SVG Version: 6.00 Build 0)  -->
<svg version="1.1" id="Capa_1" xmlns="http://www.w3.org/2000/svg" xmlns:xlink="http://www.w3.org/1999/xlink" x="0px" y="0px"
	 width="114px" height="49.3px" viewBox="0 0 114 49.3" style="enable-background:new 0 0 114 49.3;" xml:space="preserve">
<style type="text/css">
	.st0{fill:#333333;}
	.st1{fill:#C1D548;}
</style>
<g>
	<path class="st0" d="M8,7.3h0.3c1.6,0,3,1.3,3,3l0,0c0,1.6-1.3,3-3,3H8c-1.6-0.1-3-1.4-3-3.1l0,0C5,8.6,6.3,7.3,8,7.3z M5,16.1
		l1.9,0.7c0.8,0.3,1.7,0.3,2.5,0l1.9-0.7v25.4H5V16.1z"/>
	<path class="st0" d="M14.4,23c0-3.1,1.1-7.4,8.6-7.4c1.9,0,4.2,0.4,5.7,1.4c2.3,1.5,2.6,3.6,2.6,5.7v12.2c0,4.6-3.1,7.1-8.7,7.1
		c-8.3,0-8.3-5.8-8.3-7.7L14.4,23L14.4,23z M20.7,35.3c0,0.6,0,2.6,2.2,2.6c2.2,0,2.2-1.7,2.2-2.7V22.4c0-1.5-0.2-3.1-2.1-3.1
		c-2.3,0-2.3,1.9-2.3,3.1V35.3z"/>
	<path class="st0" d="M34.4,16.1h6.4L40.8,18c1.2-1.2,2.6-2.4,5.5-2.4c1.9,0,3.5,0.7,4.3,1.7c1.2,1.3,1.2,2.8,1.2,4.3v19.8h-6.2
		V22.8c0-1.4-0.1-3.1-2.2-3.1c-2.6,0-2.6,2.2-2.6,3.4v18.3h-6.3C34.4,41.4,34.4,16.1,34.4,16.1z"/>
	<path class="st1" d="M55.2,20L55.1,7h6.3v9.1h3.8V20h-3.8v14.5c0,1.6,0.3,2.8,2.9,2.8c0.4,0,0.7-0.1,1.1-0.1v4.2
		c-0.4,0.1-1.2,0.3-3.3,0.3c-6,0-6.9-2.1-6.9-5.3L55.2,20"/>
	<path class="st1" d="M70.5,6.9h0.3c1.6,0,3,1.3,3,3l0,0c0,1.6-1.3,3-3,3h-0.3c-1.6,0-3-1.3-3-3l0,0C67.5,8.3,68.8,6.9,70.5,6.9z"/>
	<path class="st1" d="M87.4,25.7v-3.1c0-0.9,0-2.8-2.3-2.8c-2.6,0-2.6,2.2-2.6,3.5v11c0,1.2,0,3.3,2.5,3.3c2.4,0,2.5-2.2,2.5-3.3
		v-2.9h6.3v2.9c0,5.2-2.9,7.7-8.7,7.7c-1.4,0-4.3-0.2-6.4-1.7c-2.1-1.5-2.4-3.6-2.4-5.6V23.4c0-1.7,0.4-3.6,1.5-4.9
		c1.7-2,4.5-2.8,7.3-2.8c2.3,0,4.8,0.6,6.4,1.8c1.6,1.3,2.2,2.9,2.2,5.3v2.9H87.4z"/>
	<path class="st1" d="M67.5,16.1l1.9,0.7c0.8,0.3,1.7,0.3,2.5,0l1.9-0.7v25.4h-6.3V16.1z"/>
	<path class="st1" d="M95.3,32.6h5.8c0,3.6,0,5.2,2.5,5.2c1.4,0,2.5-0.6,2.5-2.8c0-1.5-0.1-2.2-1.9-3.3l-5.3-3.5
		c-0.4-0.2-1.3-1.1-1.8-1.5c-0.7-0.8-1.5-1.8-1.5-4.5c0-5.3,3.7-6.5,8.2-6.5c5.5,0,7.7,2.2,7.7,5.9v2.8h-5.5c0-2.9,0-4.6-2.3-4.6
		c-0.9,0-2.2,0.2-2.2,2.2c0,0.7,0.1,1.6,1.8,2.8l5.8,3.8c0.4,0.2,1.5,1.3,1.8,1.7c0.8,1,0.9,2.3,0.9,3.9c0,3.3,0,7.8-8.4,7.8
		c-6.8,0-8.2-3.3-8.2-6.7V32.6z"/>
</g>
</svg>
