<svg id="Lager_1" data-name="Lager 1" xmlns="http://www.w3.org/2000/svg" viewBox="0 0 100 100"><defs><style>.cls-1{fill:#b5becb;}</style></defs><title>icon</title><path class="cls-1" d="M93,57.1c-1.2-.2-2.4.5-3.5,2.1a11,11,0,0,0-1.8,4,17.91,17.91,0,0,0-.2,2.4,8.53,8.53,0,0,0,.6,3.1,3.18,3.18,0,0,0,2,2.2,3.43,3.43,0,0,0,2.7-1.1,9.45,9.45,0,0,0,2.5-5c.1-.8.2-1.7.3-2.4a8.53,8.53,0,0,0-.6-3.1A3.18,3.18,0,0,0,93,57.1Z" transform="translate(-14 -14)"/><path class="cls-1" d="M72,57.1c-1.2-.2-2.4.5-3.5,2.1a11,11,0,0,0-1.8,4,17.91,17.91,0,0,0-.2,2.4,8.53,8.53,0,0,0,.6,3.1,3.18,3.18,0,0,0,2,2.2,3.43,3.43,0,0,0,2.7-1.1,9.45,9.45,0,0,0,2.5-5c.1-.8.2-1.7.3-2.4a8.53,8.53,0,0,0-.6-3.1A3.18,3.18,0,0,0,72,57.1Z" transform="translate(-14 -14)"/><path class="cls-1" d="M64,14a50,50,0,1,0,50,50A50,50,0,0,0,64,14ZM56.7,76.9a4,4,0,0,1-.4,2.2,2.3,2.3,0,0,1-1.8,1.2,3,3,0,0,1-2.6-1.2c-3.1-3.2-5.6-7.9-7.4-14.3-2.2,4.3-3.8,7.5-4.8,9.7-2,3.8-3.7,5.7-5.1,5.8-.9.1-1.7-.7-2.3-2.3-1.7-4.4-3.6-12.9-5.5-25.5a4.14,4.14,0,0,1,.6-2.3,2.66,2.66,0,0,1,2.1-1,2.46,2.46,0,0,1,2.9,2.4c1,7,2.2,12.9,3.4,17.8l7.3-14a3.21,3.21,0,0,1,2.5-2c1.5-.1,2.4.8,2.7,2.8a59,59,0,0,0,3.2,11.5c.9-8.5,2.3-14.7,4.4-18.4a2.75,2.75,0,0,1,4.3-.8,2.42,2.42,0,0,1,1,1.9,4.15,4.15,0,0,1-.3,1.6c-1.3,2.4-2.4,6.5-3.3,12.1A65,65,0,0,0,56.7,76.9Zm20.8-5.3c-2,3.3-4.6,5-7.9,5a11,11,0,0,1-1.8-.2,7.77,7.77,0,0,1-5.4-3.9,12.42,12.42,0,0,1-1.6-6.6,18.32,18.32,0,0,1,2.6-9.5c2.1-3.3,4.7-5,7.9-5a11,11,0,0,1,1.8.2,7.77,7.77,0,0,1,5.4,3.9,12.42,12.42,0,0,1,1.6,6.6A18.32,18.32,0,0,1,77.5,71.6Zm21,0c-2,3.3-4.6,5-7.9,5a11,11,0,0,1-1.8-.2,7.77,7.77,0,0,1-5.4-3.9,12.42,12.42,0,0,1-1.6-6.6,18.32,18.32,0,0,1,2.6-9.5c2.1-3.3,4.7-5,7.9-5a11,11,0,0,1,1.8.2,7.77,7.77,0,0,1,5.4,3.9,12.42,12.42,0,0,1,1.6,6.6A18.32,18.32,0,0,1,98.5,71.6Z" transform="translate(-14 -14)"/></svg>